<?xml version="1.0" standalone="no"?>
<!DOCTYPE svg PUBLIC "-//W3C//DTD SVG 20010904//EN"
 "http://www.w3.org/TR/2001/REC-SVG-20010904/DTD/svg10.dtd">
<svg version="1.0" xmlns="http://www.w3.org/2000/svg"
 width="372.000000pt" height="360.000000pt" viewBox="0 0 372.000000 360.000000"
 preserveAspectRatio="xMidYMid meet">

<g transform="translate(0.000000,360.000000) scale(0.100000,-0.100000)"
fill="#fff" stroke="none">
<path d="M1513 3160 l-88 -70 -124 1 c-143 2 -130 11 -212 -123 l-46 -75 -109
-28 c-59 -16 -115 -36 -124 -45 -9 -9 -29 -65 -45 -124 l-28 -108 -76 -48
c-134 -84 -121 -63 -121 -208 l0 -127 -70 -89 c-39 -49 -70 -97 -70 -107 0
-10 18 -63 39 -119 l39 -100 -39 -100 c-21 -56 -39 -109 -39 -119 0 -10 31
-58 70 -107 l70 -89 0 -127 c0 -145 -13 -124 121 -208 l76 -48 28 -108 c16
-59 36 -115 45 -124 9 -9 65 -29 124 -45 l109 -28 46 -75 c82 -134 69 -125
212 -123 l124 1 88 -70 c49 -38 98 -70 108 -70 11 0 61 16 110 35 50 19 99 35
108 35 9 0 64 -16 121 -35 57 -19 107 -35 111 -35 3 0 48 32 98 71 l91 70 122
-2 c140 -3 126 -11 210 123 l47 75 107 29 c60 15 115 35 124 44 9 9 29 65 45
124 l29 108 74 46 c135 85 128 71 124 211 l-4 121 71 90 c39 50 71 99 71 110
0 12 -16 62 -35 111 -19 50 -35 99 -35 109 0 10 16 59 35 109 19 49 35 99 35
111 0 11 -32 60 -71 110 l-71 90 4 121 c4 140 11 126 -124 211 l-74 46 -29
108 c-16 59 -36 115 -45 124 -9 9 -64 29 -124 44 l-107 29 -47 75 c-84 134
-70 126 -211 123 l-122 -2 -90 70 c-49 39 -98 71 -108 71 -11 0 -61 -16 -111
-35 -50 -19 -100 -35 -110 -35 -10 0 -59 16 -109 35 -49 19 -99 35 -110 35
-10 0 -59 -32 -108 -70z m214 -65 c48 -19 99 -35 113 -35 14 0 66 16 115 36
103 41 89 45 203 -49 l72 -60 113 7 112 6 62 -93 61 -94 102 -29 c57 -15 108
-33 114 -40 7 -6 25 -57 40 -114 l29 -102 94 -61 94 -62 -6 -115 -6 -115 71
-83 c38 -46 70 -88 70 -93 0 -5 -16 -48 -35 -96 -19 -48 -35 -99 -35 -113 0
-14 16 -65 35 -113 19 -48 35 -91 35 -96 0 -5 -32 -47 -70 -93 l-71 -83 6
-115 6 -115 -94 -62 -94 -61 -29 -102 c-15 -57 -33 -108 -40 -114 -6 -7 -57
-25 -114 -40 l-102 -29 -61 -94 -62 -93 -112 6 -113 7 -77 -63 c-43 -35 -84
-68 -90 -73 -9 -6 -48 3 -118 28 l-105 38 -101 -37 c-55 -20 -104 -36 -107
-36 -4 0 -46 32 -92 71 l-85 71 -115 -7 -115 -6 -61 94 c-53 81 -67 95 -100
104 -22 6 -71 21 -111 32 l-72 21 -15 55 c-53 184 -38 159 -142 228 l-94 62 6
115 6 115 -71 85 c-39 46 -71 87 -71 90 0 4 16 45 35 93 19 48 35 100 35 117
0 17 -16 69 -35 117 -19 48 -35 89 -35 93 0 3 32 44 71 90 l71 85 -6 115 -6
115 94 62 c91 60 95 64 109 115 9 29 23 79 32 110 l16 58 72 21 c40 11 89 26
111 32 33 9 47 23 100 104 l61 94 115 -6 115 -7 85 71 c46 39 88 71 92 71 5 0
47 -16 95 -35z"/>
<path d="M1685 2929 c-182 -24 -383 -108 -535 -223 -315 -237 -472 -568 -457
-964 6 -172 36 -292 110 -446 53 -108 158 -266 178 -266 25 0 49 23 49 45 0
14 -21 53 -46 87 -93 126 -170 322 -193 492 -70 502 235 986 719 1144 279 91
617 56 851 -88 55 -34 95 -36 113 -7 17 26 -1 47 -84 94 -89 51 -209 96 -316
118 -96 20 -294 27 -389 14z"/>
<path d="M2552 2638 c-21 -21 -13 -42 38 -95 53 -56 69 -63 94 -37 26 25 19
48 -31 97 -47 47 -78 58 -101 35z"/>
<path d="M2054 2569 c-37 -11 -103 -74 -109 -106 -3 -13 -8 -35 -11 -50 -11
-52 -116 -138 -222 -181 -29 -12 -74 -40 -100 -63 l-47 -42 -193 -1 -194 -1
-29 -33 -29 -32 0 -416 0 -416 29 -29 29 -29 185 0 c171 0 185 1 202 20 17 19
31 20 385 20 202 0 382 3 400 7 19 3 50 23 72 45 39 39 40 41 37 102 -3 52 0
66 19 91 29 36 36 65 29 122 -4 37 -1 50 15 67 38 40 49 101 27 150 -10 22 -8
29 19 60 55 63 55 149 0 212 -17 19 -40 40 -52 47 -13 7 -86 14 -194 17 l-172
5 41 57 c78 111 102 241 56 309 -25 38 -98 79 -137 78 -14 0 -39 -5 -56 -10z
m103 -105 c23 -23 25 -31 20 -74 -9 -72 -51 -145 -128 -223 -70 -71 -77 -84
-59 -118 10 -18 24 -19 245 -19 222 0 236 -1 255 -20 24 -24 26 -77 3 -102 -9
-10 -30 -18 -47 -18 -74 0 -105 -74 -41 -95 47 -16 55 -24 55 -56 0 -33 -27
-49 -84 -49 -43 0 -63 -22 -50 -57 6 -18 20 -29 41 -35 39 -10 58 -40 44 -67
-13 -23 -32 -31 -76 -31 -75 0 -88 -79 -15 -93 42 -9 60 -49 35 -77 -17 -19
-31 -20 -387 -20 l-368 0 0 224 c0 191 -2 227 -16 240 -22 22 -50 20 -68 -6
-13 -19 -16 -62 -16 -265 l0 -243 -140 0 -140 0 0 385 0 385 140 0 140 0 0
-48 c0 -55 21 -92 54 -92 35 0 46 20 46 85 0 60 0 61 53 111 32 32 71 58 102
69 146 52 261 161 279 267 12 67 76 89 123 42z"/>
<path d="M1320 1431 c-14 -27 -13 -37 6 -55 40 -40 101 3 75 53 -15 28 -66 29
-81 2z"/>
<path d="M2742 2418 c-20 -20 -13 -55 23 -115 155 -256 177 -617 56 -912 -104
-250 -294 -448 -545 -567 -124 -58 -235 -85 -377 -92 -249 -10 -497 64 -698
210 -36 26 -71 48 -77 48 -16 0 -44 -34 -44 -52 0 -20 113 -104 212 -157 304
-164 652 -186 973 -60 250 97 457 286 594 539 79 148 131 357 131 530 0 173
-52 382 -131 530 -59 109 -85 130 -117 98z"/>
</g>
</svg>
